<svg width="398" height="163" viewBox="0 0 398 163" fill="none" xmlns="http://www.w3.org/2000/svg">
<path d="M203.01 135.75C202.46 132.31 202.5 113 202.5 92.5L202.5 44.5H219.75V96C219.5 135.64 219.5 135 221.59 138.67C222.74 140.23 224.5 142.5 227.09 143.78C229.68 145.06 233.58 146.05 260 146V163H242C227.19 162.76 225.1 162.27 221 160.13C218.52 158.85 214.55 155.93 212.17 153.65C209.78 151.37 206.97 147.81 205.92 145.75C204.86 143.69 203.55 139.19 203.01 135.75Z" fill="white"/>
<path d="M326.71 6.20311C329.32 4.69311 334.39 2.69311 337.96 1.75311C341.53 0.823111 347.27 0.0331107 350.71 0.00311068C354.15 -0.0268893 356.96 0.163111 356.96 0.443111C356.96 0.723111 354.37 3.35311 351.21 6.30311C348.05 9.25311 344.28 13.8731 342.83 16.5531C341.39 19.2431 339.63 23.9131 338.94 26.9431C338.15 30.3731 337.93 34.8831 338.34 38.9431C338.75 42.9131 340.13 47.7731 341.9 51.4431C343.68 55.1331 346.94 59.4631 350.38 62.6931C353.45 65.5831 358.55 69.1431 361.71 70.6031C365.43 72.3231 369.76 73.4131 373.96 73.6831C377.53 73.9131 381.14 74.2931 381.96 74.5331C383.15 74.8831 382.94 75.4931 380.96 77.4931C379.59 78.8831 375.53 81.5231 371.96 83.3731C368.39 85.2131 363.1 87.2231 360.21 87.8331C357.32 88.4431 352.82 88.9431 350.21 88.9531C347.6 88.9531 342.76 88.2431 339.46 87.3831C336.16 86.5231 331.21 84.6131 328.46 83.1431C325.71 81.6731 320.98 77.9731 317.96 74.9231C314.94 71.8731 311.26 66.9131 309.79 63.9131C308.31 60.9031 306.64 56.4131 306.06 53.9431C305.48 51.4731 305 46.9731 305 43.9431C304.99 40.9131 305.57 36.1931 306.3 33.4431C307.02 30.6931 308.82 26.1931 310.29 23.4431C311.77 20.6931 315 16.3031 317.47 13.6931C319.94 11.0831 324.1 7.71311 326.71 6.20311Z" fill="#F6C534"/>
<path d="M41.8099 101C35.5032 101 29.8199 100.047 24.7599 98.14C19.6999 96.16 15.4099 93.41 11.8899 89.89C8.36989 86.37 5.65656 82.3 3.74989 77.68C1.84323 72.9867 0.889893 67.9267 0.889893 62.5C0.889893 57.0733 1.84323 52.05 3.74989 47.43C5.65656 42.7367 8.36989 38.63 11.8899 35.11C15.4832 31.59 19.7732 28.8767 24.7599 26.97C29.8199 24.99 35.5032 24 41.8099 24H53.6899V39.4H42.2499C38.8032 39.4 35.6499 39.9867 32.7899 41.16C30.0032 42.3333 27.5832 43.9833 25.5299 46.11C23.5499 48.1633 22.0099 50.5833 20.9099 53.37C19.8832 56.1567 19.3699 59.2 19.3699 62.5C19.3699 65.8 19.8832 68.8433 20.9099 71.63C22.0099 74.4167 23.5499 76.8733 25.5299 79C27.5832 81.0533 30.0032 82.6667 32.7899 83.84C35.6499 85.0133 38.8032 85.6 42.2499 85.6H53.6899V101H41.8099Z" fill="white"/>
<path d="M91.7465 102.32C85.9531 102.32 80.7465 101.037 76.1265 98.47C71.5065 95.9033 67.8398 92.3833 65.1265 87.91C62.4865 83.4367 61.1665 78.4133 61.1665 72.84C61.1665 67.1933 62.4865 62.17 65.1265 57.77C67.8398 53.2967 71.5065 49.7767 76.1265 47.21C80.7465 44.57 85.9531 43.25 91.7465 43.25C97.5398 43.25 102.71 44.57 107.256 47.21C111.876 49.7767 115.506 53.2967 118.146 57.77C120.86 62.17 122.216 67.1933 122.216 72.84C122.216 78.4133 120.86 83.4367 118.146 87.91C115.506 92.3833 111.876 95.9033 107.256 98.47C102.636 101.037 97.4665 102.32 91.7465 102.32ZM91.7465 87.47C94.4598 87.47 96.8065 86.81 98.7865 85.49C100.766 84.17 102.306 82.41 103.406 80.21C104.506 78.01 105.056 75.5167 105.056 72.73C105.056 70.0167 104.506 67.56 103.406 65.36C102.306 63.16 100.766 61.4 98.7865 60.08C96.8065 58.76 94.4598 58.1 91.7465 58.1C89.0331 58.1 86.6498 58.76 84.5965 60.08C82.6165 61.4 81.0765 63.16 79.9765 65.36C78.8765 67.56 78.3265 70.0167 78.3265 72.73C78.3265 75.5167 78.8765 78.01 79.9765 80.21C81.0765 82.41 82.6165 84.17 84.5965 85.49C86.6498 86.81 89.0331 87.47 91.7465 87.47Z" fill="white"/>
<path d="M159.952 102.32C155.258 102.32 151.005 101.587 147.192 100.12C143.452 98.6533 140.298 96.5633 137.732 93.85C135.165 91.0633 133.185 87.8 131.792 84.06C130.398 80.32 129.702 76.25 129.702 71.85C129.702 66.13 130.838 61.1433 133.112 56.89C135.458 52.6367 138.648 49.3 142.682 46.88C146.788 44.46 151.482 43.25 156.762 43.25C159.035 43.25 161.162 43.5433 163.142 44.13C165.195 44.7167 167.028 45.5967 168.642 46.77C170.328 47.87 171.722 49.19 172.822 50.73H173.152V20.7H190.202V71.74C190.202 77.9 188.955 83.29 186.462 87.91C183.968 92.53 180.448 96.0867 175.902 98.58C171.428 101.073 166.112 102.32 159.952 102.32ZM159.952 87.58C162.592 87.58 164.865 86.9567 166.772 85.71C168.752 84.39 170.255 82.63 171.282 80.43C172.308 78.1567 172.822 75.6267 172.822 72.84C172.822 70.0533 172.308 67.56 171.282 65.36C170.255 63.16 168.752 61.4367 166.772 60.19C164.865 58.87 162.592 58.21 159.952 58.21C157.385 58.21 155.112 58.87 153.132 60.19C151.152 61.4367 149.648 63.16 148.622 65.36C147.595 67.56 147.082 70.0533 147.082 72.84C147.082 75.6267 147.595 78.1567 148.622 80.43C149.648 82.63 151.152 84.39 153.132 85.71C155.112 86.9567 157.385 87.58 159.952 87.58Z" fill="white"/>
<path d="M202.488 101V44.57H219.648V101H202.488ZM211.068 38.19C208.355 38.19 206.008 37.2 204.028 35.22C202.048 33.24 201.058 30.8933 201.058 28.18C201.058 25.4667 202.048 23.12 204.028 21.14C206.008 19.0867 208.355 18.06 211.068 18.06C213.781 18.06 216.128 19.0867 218.108 21.14C220.088 23.12 221.078 25.4667 221.078 28.18C221.078 30.8933 220.088 33.24 218.108 35.22C216.128 37.2 213.781 38.19 211.068 38.19Z" fill="white"/>
<path d="M232.137 101V68.55C232.137 63.8567 233.273 59.6033 235.547 55.79C237.82 51.9767 241.047 48.9333 245.227 46.66C249.48 44.3867 254.503 43.25 260.297 43.25C266.163 43.25 271.15 44.3867 275.257 46.66C279.437 48.9333 282.627 51.9767 284.827 55.79C287.027 59.6033 288.127 63.8567 288.127 68.55V101H271.077V68.99C271.077 67.01 270.6 65.2133 269.647 63.6C268.693 61.9133 267.373 60.5933 265.687 59.64C264.073 58.6133 262.24 58.1 260.187 58.1C258.06 58.1 256.153 58.6133 254.467 59.64C252.853 60.5933 251.57 61.9133 250.617 63.6C249.663 65.2133 249.187 67.01 249.187 68.99V101H232.137Z" fill="white"/>
<path d="M299.24 162.82C293.447 162.82 288.423 161.72 284.17 159.52C279.99 157.247 276.763 154.203 274.49 150.39C272.217 146.503 271.08 142.213 271.08 137.52V105.07H288.13V137.08C288.13 139.06 288.607 140.893 289.56 142.58C290.513 144.193 291.797 145.513 293.41 146.54C295.097 147.493 297.003 147.97 299.13 147.97C301.183 147.97 303.017 147.493 304.63 146.54C306.317 145.513 307.637 144.193 308.59 142.58C309.543 140.893 310.02 139.06 310.02 137.08V105.07H327.07V137.52C327.07 142.213 325.97 146.503 323.77 150.39C321.57 154.203 318.38 157.247 314.2 159.52C310.093 161.72 305.107 162.82 299.24 162.82Z" fill="white"/>
<path d="M362.49 162.82C357.503 162.82 353.103 161.537 349.29 158.97C345.477 156.403 342.507 152.957 340.38 148.63C338.253 144.23 337.19 139.28 337.19 133.78C337.19 128.06 338.437 122.963 340.93 118.49C343.423 113.943 346.943 110.35 351.49 107.71C356.11 105.07 361.537 103.75 367.77 103.75C374.077 103.75 379.43 105.07 383.83 107.71C388.303 110.277 391.713 113.833 394.06 118.38C396.48 122.853 397.69 127.877 397.69 133.45V161.5H380.97V152.48H380.53C379.503 154.46 378.183 156.257 376.57 157.87C374.957 159.41 372.977 160.62 370.63 161.5C368.357 162.38 365.643 162.82 362.49 162.82ZM367.55 148.08C370.117 148.08 372.353 147.457 374.26 146.21C376.24 144.89 377.743 143.093 378.77 140.82C379.797 138.547 380.31 136.017 380.31 133.23C380.31 130.517 379.797 128.06 378.77 125.86C377.743 123.66 376.24 121.937 374.26 120.69C372.353 119.37 370.117 118.71 367.55 118.71C364.91 118.71 362.6 119.37 360.62 120.69C358.64 121.937 357.137 123.66 356.11 125.86C355.083 128.06 354.57 130.517 354.57 133.23C354.57 136.017 355.083 138.547 356.11 140.82C357.137 143.093 358.64 144.89 360.62 146.21C362.6 147.457 364.91 148.08 367.55 148.08Z" fill="white"/>
</svg>
